# xmcd
#
# Track frame offsets: 
#        150
#        140480
#        168385
#        220205
#        276062
#
# Disc length: 4229 seconds
#
# Revision: 1
# Processed by: cddbd v1.5.2PL0 Copyright (c) Steve Scherf et al.
# Submitted via: ExactAudioCopyFreeDBPlugin 1.0
#
DISCID=47108305
DTITLE=Voodoo Records - Viva Mix 2
DYEAR=1994
DGENRE=Bootleg
TTITLE0=Vivasion Megamix
TTITLE1=M.C.Sar and The Real Mc Coy - Runaway (Remix)
TTITLE2=Capella - Megamix
TTITLE3=Toni di Bart - The Real Thing (Remix)
TTITLE4=Bonus Megamix
EXTD=YEAR: 2005
EXTT0=
EXTT1=
EXTT2=
EXTT3=
EXTT4=
PLAYORDER=
